<?xml version="1.0" encoding="UTF-8" standalone="no"?>
<!-- Created with Inkscape (http://www.inkscape.org/) -->

<svg
   width="800.00006"
   height="86.890266"
   viewBox="0 0 211.66668 22.989716"
   version="1.1"
   id="svg1"
   xml:space="preserve"
   xmlns="http://www.w3.org/2000/svg"
   xmlns:svg="http://www.w3.org/2000/svg"><defs
     id="defs1" /><g
     id="layer1"
     transform="translate(-2.6458333,-0.39687499)"><path
       style="fill:#000000;stroke-width:1.18383"
       d="m 76.299586,23.386592 h -0.05553 l -5.775203,-5.775195 -5.775204,-5.775206 v 4.124995 4.124995 h -2.310294 -2.310291 v -9.844656 -9.84465 l 5.667271,5.6641208 5.667271,5.6641282 h 0.163463 0.163464 V 7.7646333 3.804131 h 2.310291 2.310291 v 9.791231 9.79123 z M 187.46472,21.186314 h -0.1101 l -4.01328,-4.017669 -4.01326,-4.017681 V 8.4775474 3.804131 h 2.31029 2.31029 v 3.470598 3.470598 l 1.76021,1.749902 1.76023,1.749889 1.76022,-1.749889 1.76023,-1.749902 V 7.274729 3.804131 h 2.31029 2.31029 v 4.6778202 4.6778198 l -4.01768,4.013278 -4.01768,4.013265 z M 10.786859,20.086181 H 8.3665547 V 14.255441 8.424713 H 5.5061931 2.6458333 V 6.114422 3.804131 h 8.1410257 8.141024 V 6.114422 8.424713 H 14.257154 9.5864225 l 1.8103705,1.819819 1.810371,1.81983 v 4.01091 4.010909 z m 12.871621,0 H 21.348189 V 17.77589 15.465599 h 2.310291 2.310291 v 2.310291 2.310291 z m 7.040886,0 H 28.389075 V 11.94515 3.804131 h 8.141025 8.141027 v 8.141019 8.141031 h -2.310291 -2.310291 v -1.760224 -1.760225 h -1.810361 -1.810361 l -1.710082,-1.70005 -1.710084,-1.700051 v 3.460275 3.460275 z M 36.5301,11.94515 h 3.520445 V 10.184938 8.424713 H 36.5301 33.009657 v 1.760225 1.760212 z m 12.871622,8.141031 H 47.091431 V 17.77589 15.465599 h 2.310291 2.310291 v 2.310291 2.310291 z m 31.683991,0 H 78.775422 V 11.94515 3.804131 h 8.141025 8.141026 v 8.141019 8.141031 h -2.310291 -2.310291 v -1.760224 -1.760225 h -1.81036 -1.810361 l -1.710083,-1.70005 -1.710083,-1.700051 v 3.460275 3.460275 z m 5.830734,-8.141031 h 3.520444 V 10.184938 8.424713 h -3.520444 -3.520443 v 1.760225 1.760212 z m 12.871622,8.141031 H 97.477778 V 11.94515 3.804131 h 8.141032 8.14103 v 5.1591535 5.1591535 l -1.10605,0.06653 -1.10604,0.06653 2.3162,2.306361 2.31619,2.306361 V 11.33621 3.8041882 h 8.14103 8.14102 v 5.1591535 5.1591533 l -1.10604,0.06653 -1.10604,0.06653 2.3162,2.30636 2.31618,2.306361 v -7.53201 -7.5320216 h 8.14104 8.14101 v 8.1410196 8.141031 h -2.31029 -2.31029 v -1.76022 -1.760224 h -1.71071 -1.71072 l -1.6392,-1.6502 -1.63919,-1.650211 h -0.17053 -0.17053 v 3.410436 3.410424 h -5.22355 -5.22354 l -4.12763,-4.12335 -4.12764,-4.12335 v 4.12335 4.12335 h -5.22354 -5.22354 L 106.226,15.96295 102.09836,11.8396 v 4.12335 4.12335 z M 143.02353,11.94515 h 3.52043 V 10.184938 8.424713 h -3.52043 -3.52045 v 1.760225 1.760212 z M 105.61881,9.524846 h 3.52044 V 8.9747795 8.424713 h -3.52044 -3.52045 V 8.9747795 9.524846 Z m 18.70236,0 h 3.52044 V 8.9747795 8.424713 h -3.52044 -3.52045 V 8.9747795 9.524846 Z m 37.40471,10.561335 h -2.4203 v -5.83074 -5.830728 h -2.86036 -2.86037 V 6.114422 3.804131 h 8.14103 8.14103 v 2.310291 2.310291 h -4.67074 -4.67073 l 1.81037,1.819819 1.81037,1.81983 v 4.01091 4.010909 z m 12.87163,0 h -2.31029 V 11.94515 3.804131 h 2.31029 2.31029 v 8.141019 8.141031 z m 31.57397,0 h -8.14102 V 11.94515 3.804131 h 8.14102 8.14103 v 2.310291 2.310291 h -5.83074 -5.83073 V 8.9747795 9.524846 h 5.83073 5.83074 v 2.310291 2.310291 h -4.12065 -4.12065 l -1.71009,-1.70005 -1.71008,-1.700051 v 2.360142 2.36013 h 5.83073 5.83074 v 2.310291 2.310291 z"
       id="path1" /></g></svg>
